<svg xmlns="http://www.w3.org/2000/svg" fill="none" viewBox="0 0 20 20" height="20" width="20">
<path fill="black" d="M10 17.4519C9.66556 17.4519 9.36986 17.3638 9.11292 17.1875C8.85597 17.0112 8.67625 16.7798 8.57375 16.4936H8.33333C7.9925 16.4936 7.69896 16.3705 7.45271 16.1242C7.20646 15.878 7.08333 15.5844 7.08333 15.2436V12.5096C6.2425 12 5.5809 11.3168 5.09854 10.46C4.61618 9.6031 4.375 8.68587 4.375 7.70837C4.375 6.14004 4.92042 4.81046 6.01125 3.71962C7.10208 2.62879 8.43167 2.08337 10 2.08337C11.5683 2.08337 12.8979 2.62879 13.9888 3.71962C15.0796 4.81046 15.625 6.14004 15.625 7.70837C15.625 8.70296 15.3838 9.62442 14.9015 10.4727C14.4191 11.3211 13.7575 12 12.9167 12.5096V15.2436C12.9167 15.5844 12.7935 15.878 12.5473 16.1242C12.301 16.3705 12.0075 16.4936 11.6667 16.4936H11.4263C11.3238 16.7798 11.144 17.0112 10.8871 17.1875C10.6301 17.3638 10.3344 17.4519 10 17.4519ZM8.33333 15.2436H11.6667V14.4615H8.33333V15.2436ZM8.33333 13.7244H11.6667V12.9167H8.33333V13.7244ZM8.16667 11.6667H9.50313V9.24046L8.06729 7.80442C7.96896 7.70622 7.91847 7.59115 7.91583 7.45921C7.91319 7.32726 7.96368 7.20949 8.06729 7.10587C8.1709 7.00226 8.28736 6.95046 8.41667 6.95046C8.54597 6.95046 8.66243 7.00226 8.76604 7.10587L10 8.33983L11.234 7.10587C11.3323 7.00754 11.4474 6.95705 11.5794 6.95442C11.7113 6.95178 11.8291 7.00226 11.9327 7.10587C12.0363 7.20949 12.0881 7.32594 12.0881 7.45525C12.0881 7.58442 12.0363 7.7008 11.9327 7.80442L10.4969 9.24046V11.6667H11.8333C12.5833 11.3056 13.1944 10.7743 13.6667 10.073C14.1389 9.37157 14.375 8.58337 14.375 7.70837C14.375 6.48615 13.9514 5.45143 13.1042 4.60421C12.2569 3.75699 11.2222 3.33337 10 3.33337C8.77778 3.33337 7.74306 3.75699 6.89583 4.60421C6.04861 5.45143 5.625 6.48615 5.625 7.70837C5.625 8.58337 5.86111 9.37157 6.33333 10.073C6.80556 10.7743 7.41667 11.3056 8.16667 11.6667Z"/>
</svg>