<svg xmlns="http://www.w3.org/2000/svg" fill="none" viewBox="0 0 12 12" height="12" width="12">
<path fill="black" d="M4.78441 7.36026L8.86785 3.20184C8.99989 3.06728 9.15553 3 9.33476 3C9.51408 3 9.66976 3.06728 9.80181 3.20184C9.93394 3.33631 10 3.49574 10 3.68013C10 3.86451 9.93394 4.02399 9.80181 4.15854L5.25146 8.79816C5.11933 8.93272 4.96365 9 4.78441 9C4.60518 9 4.4495 8.93272 4.31737 8.79816L2.1955 6.63726C2.06337 6.5027 1.99822 6.34323 2.00004 6.15884C2.00186 5.97445 2.06883 5.81502 2.20096 5.68055C2.33301 5.54599 2.48956 5.47871 2.67061 5.47871C2.85167 5.47871 3.00826 5.54599 3.14039 5.68055L4.78441 7.36026Z"/>
</svg>