<svg xmlns="http://www.w3.org/2000/svg" fill="none" viewBox="0 0 12 12" height="12" width="12">
<path fill="black" d="M3.41978 8.2539L8.9006 2.21381C9.02994 2.07127 9.18084 2 9.3533 2C9.52575 2 9.67665 2.07127 9.80599 2.21381C9.93533 2.35635 10 2.52561 10 2.7216C10 2.91759 9.93533 3.08686 9.80599 3.2294L3.87247 9.78619C3.74313 9.92873 3.59223 10 3.41978 10C3.24732 10 3.09642 9.92873 2.96708 9.78619L0.186251 6.7216C0.0569101 6.57906 -0.00506586 6.4098 0.000323353 6.21381C0.00571256 6.01782 0.0730777 5.84855 0.202419 5.70601C0.33176 5.56347 0.485352 5.49221 0.663196 5.49221C0.84104 5.49221 0.994632 5.56347 1.12397 5.70601L3.41978 8.2539Z"/>
</svg>