<svg xmlns="http://www.w3.org/2000/svg" fill="none" viewBox="0 0 24 24" height="24" width="24">
<rect fill="white" height="8" width="10" y="8" x="7"/>
<path fill="#BD96CE" d="M10.9502 13.0655L9.32721 11.4577C9.18871 11.3192 9.01721 11.2484 8.81271 11.2452C8.60821 11.2421 8.42838 11.318 8.27321 11.473C8.12838 11.618 8.05596 11.7936 8.05596 12C8.05596 12.2063 8.12838 12.382 8.27321 12.527L10.3175 14.5712C10.4983 14.7519 10.7092 14.8422 10.9502 14.8422C11.1912 14.8422 11.4021 14.7519 11.583 14.5712L15.7272 10.427C15.8759 10.2781 15.9492 10.1041 15.9472 9.90472C15.9454 9.70538 15.872 9.52813 15.7272 9.37297C15.572 9.21797 15.3938 9.13788 15.1925 9.13272C14.9913 9.12755 14.8131 9.20255 14.658 9.35772L10.9502 13.0655ZM8.40996 21.1827L7.02721 18.8577L4.41171 18.296C4.18738 18.2525 4.00821 18.1346 3.87421 17.9422C3.74021 17.7499 3.68671 17.5416 3.71371 17.3172L3.96946 14.627L2.19071 12.5922C2.03688 12.4282 1.95996 12.2308 1.95996 12C1.95996 11.7691 2.03688 11.5717 2.19071 11.4077L3.96946 9.37297L3.71371 6.68272C3.68671 6.45838 3.74021 6.25005 3.87421 6.05772C4.00821 5.86538 4.18738 5.74747 4.41171 5.70397L7.02721 5.14222L8.40996 2.81722C8.53046 2.61988 8.69454 2.4853 8.90221 2.41347C9.10988 2.34163 9.32079 2.35255 9.53496 2.44622L12.0002 3.48847L14.4655 2.44622C14.6796 2.35255 14.8905 2.34163 15.0982 2.41347C15.3059 2.4853 15.47 2.61988 15.5905 2.81722L16.9732 5.14222L19.5887 5.70397C19.813 5.74747 19.9922 5.86538 20.1262 6.05772C20.2602 6.25005 20.3137 6.45838 20.2867 6.68272L20.031 9.37297L21.8097 11.4077C21.9635 11.5717 22.0405 11.7691 22.0405 12C22.0405 12.2308 21.9635 12.4282 21.8097 12.5922L20.031 14.627L20.2867 17.3172C20.3137 17.5416 20.2602 17.7499 20.1262 17.9422C19.9922 18.1346 19.813 18.2525 19.5887 18.296L16.9732 18.8577L15.5905 21.1827C15.47 21.3801 15.3059 21.5146 15.0982 21.5865C14.8905 21.6583 14.6796 21.6474 14.4655 21.5537L12.0002 20.5115L9.53496 21.5537C9.32079 21.6474 9.10988 21.6583 8.90221 21.5865C8.69454 21.5146 8.53046 21.3801 8.40996 21.1827Z"/>
</svg>