<svg xmlns="http://www.w3.org/2000/svg" fill="none" viewBox="0 0 12 12" height="12" width="12">
<path fill="black" d="M3.16329 8.24922L8.23306 3.17946C8.3527 3.05982 8.49228 3 8.6518 3C8.81132 3 8.9509 3.05982 9.07054 3.17946C9.19018 3.2991 9.25 3.44117 9.25 3.60568C9.25 3.77019 9.19018 3.91226 9.07054 4.0319L3.58203 9.53536C3.46239 9.655 3.32281 9.71482 3.16329 9.71482C3.00377 9.71482 2.86419 9.655 2.74455 9.53536L0.172282 6.96309C0.0526418 6.84345 -0.00468592 6.70138 0.000299101 6.53687C0.00528412 6.37236 0.0675968 6.23029 0.187237 6.11065C0.306878 5.99101 0.448951 5.93119 0.613456 5.93119C0.777962 5.93119 0.920035 5.99101 1.03968 6.11065L3.16329 8.24922Z"/>
</svg>