<svg xmlns="http://www.w3.org/2000/svg" fill="none" viewBox="0 0 12 12" height="12" width="12">
<path fill="black" d="M4.17662 8.04038L10.3018 1.80276C10.4998 1.60092 10.7333 1.5 11.0021 1.5C11.2711 1.5 11.5046 1.60092 11.7027 1.80276C11.9009 2.00447 12 2.24361 12 2.52019C12 2.79677 11.9009 3.03598 11.7027 3.23782L4.87719 10.1972C4.67899 10.3991 4.44547 10.5 4.17662 10.5C3.90777 10.5 3.67425 10.3991 3.47606 10.1972L0.293246 6.95588C0.095054 6.75405 -0.00267625 6.51484 5.572e-05 6.23826C0.00278769 5.96168 0.10325 5.72254 0.301442 5.52082C0.49951 5.31899 0.734336 5.21807 1.00592 5.21807C1.2775 5.21807 1.51239 5.31899 1.71058 5.52082L4.17662 8.04038Z"/>
</svg>