<svg xmlns="http://www.w3.org/2000/svg" fill="none" viewBox="0 0 16 16" height="16" width="16">
<path fill="black" d="M6.36644 9.77978L11.8469 4.29945C12.0242 4.12211 12.2331 4.03345 12.4736 4.03345C12.7143 4.03345 12.9232 4.12211 13.1004 4.29945C13.2778 4.47667 13.3664 4.68678 13.3664 4.92978C13.3664 5.17278 13.2778 5.38295 13.1004 5.56028L6.99328 11.6748C6.81594 11.8521 6.607 11.9408 6.36644 11.9408C6.12589 11.9408 5.91694 11.8521 5.73961 11.6748L2.89178 8.82695C2.71444 8.64961 2.627 8.43945 2.62944 8.19645C2.63189 7.95345 2.72178 7.74334 2.89911 7.56611C3.07633 7.38878 3.28644 7.30011 3.52944 7.30011C3.77244 7.30011 3.98261 7.38878 4.15994 7.56611L6.36644 9.77978Z"/>
</svg>