<svg xmlns="http://www.w3.org/2000/svg" fill="none" viewBox="0 0 12 12" height="12" width="12">
<path fill="black" d="M3.644 7.575L7.8815 3.3375C7.9815 3.2375 8.09817 3.1875 8.2315 3.1875C8.36483 3.1875 8.4815 3.2375 8.5815 3.3375C8.6815 3.4375 8.7315 3.55625 8.7315 3.69375C8.7315 3.83125 8.6815 3.95 8.5815 4.05L3.994 8.65C3.894 8.75 3.77733 8.8 3.644 8.8C3.51067 8.8 3.394 8.75 3.294 8.65L1.144 6.5C1.044 6.4 0.996083 6.28125 1.00025 6.14375C1.00442 6.00625 1.0565 5.8875 1.1565 5.7875C1.2565 5.6875 1.37525 5.6375 1.51275 5.6375C1.65025 5.6375 1.769 5.6875 1.869 5.7875L3.644 7.575Z"/>
</svg>