<svg xmlns="http://www.w3.org/2000/svg" fill="none" viewBox="0 0 12 12" height="12" width="12">
<path fill="black" d="M6.15919 7.11829L9.13076 4.14672C9.23184 4.04565 9.35144 3.99679 9.48958 4.00016C9.62771 4.00353 9.74732 4.05575 9.84839 4.15683C9.94946 4.2579 10 4.37751 10 4.51564C10 4.65377 9.94946 4.77338 9.84839 4.87445L6.73531 7.97742C6.65445 8.05828 6.56349 8.11893 6.46241 8.15936C6.36134 8.19978 6.26026 8.22 6.15919 8.22C6.05812 8.22 5.95704 8.19978 5.85597 8.15936C5.75489 8.11893 5.66393 8.05828 5.58307 7.97742L2.46999 4.86434C2.36892 4.76327 2.32007 4.64535 2.32343 4.51059C2.3268 4.37582 2.37903 4.2579 2.4801 4.15683C2.58117 4.05575 2.70078 4.00522 2.83891 4.00522C2.97705 4.00522 3.09665 4.05575 3.19772 4.15683L6.15919 7.11829Z"/>
</svg>