<svg xmlns="http://www.w3.org/2000/svg" fill="none" viewBox="0 0 20 20" height="20" width="20">
<path fill="black" d="M12.9167 14.5513L17.202 10.2661C17.3174 10.1506 17.4624 10.0916 17.6372 10.089C17.8117 10.0863 17.9595 10.1454 18.0803 10.2661C18.201 10.3867 18.2613 10.5331 18.2613 10.7052C18.2613 10.8772 18.201 11.0235 18.0803 11.1442L13.444 15.7804C13.2933 15.9311 13.1176 16.0065 12.9167 16.0065C12.7159 16.0065 12.5402 15.9311 12.3895 15.7804L10.1026 13.4936C9.9873 13.3781 9.92828 13.2331 9.9255 13.0586C9.92286 12.8838 9.98189 12.7361 10.1026 12.6154C10.2234 12.4947 10.3698 12.4344 10.5417 12.4344C10.7137 12.4344 10.8601 12.4947 10.9809 12.6154L12.9167 14.5513ZM4.42321 17.0833C4.0089 17.0833 3.65425 16.9358 3.35925 16.6408C3.06425 16.3458 2.91675 15.9912 2.91675 15.5769V4.42314C2.91675 4.00883 3.06425 3.65418 3.35925 3.35918C3.65425 3.06418 4.0089 2.91668 4.42321 2.91668H8.09467C8.21008 2.51071 8.44591 2.17418 8.80216 1.90709C9.15841 1.64001 9.55772 1.50647 10.0001 1.50647C10.4595 1.50647 10.8652 1.64001 11.2172 1.90709C11.5692 2.17418 11.803 2.51071 11.9184 2.91668H15.577C15.9913 2.91668 16.3459 3.06418 16.6409 3.35918C16.9359 3.65418 17.0834 4.00883 17.0834 4.42314V7.70834C17.0834 7.88543 17.0235 8.0339 16.9036 8.15376C16.7838 8.27348 16.6353 8.33334 16.4582 8.33334C16.281 8.33334 16.1326 8.27348 16.013 8.15376C15.8933 8.0339 15.8334 7.88543 15.8334 7.70834V4.42314C15.8334 4.35897 15.8067 4.30022 15.7532 4.24689C15.6999 4.19341 15.6411 4.16668 15.577 4.16668H13.7501V5.59293C13.7501 5.8064 13.6782 5.98529 13.5345 6.12959C13.3907 6.2739 13.2126 6.34605 13.0001 6.34605H6.99987C6.78737 6.34605 6.60932 6.2739 6.46571 6.12959C6.32196 5.98529 6.25008 5.8064 6.25008 5.59293V4.16668H4.42321C4.35904 4.16668 4.30029 4.19341 4.24696 4.24689C4.19348 4.30022 4.16675 4.35897 4.16675 4.42314V15.5769C4.16675 15.6411 4.19348 15.6998 4.24696 15.7531C4.30029 15.8066 4.35904 15.8333 4.42321 15.8333H8.54175C8.71883 15.8333 8.8673 15.8933 8.98716 16.0131C9.10689 16.133 9.16675 16.2815 9.16675 16.4586C9.16675 16.6358 9.10689 16.7842 8.98716 16.9038C8.8673 17.0235 8.71883 17.0833 8.54175 17.0833H4.42321ZM10.0015 4.26293C10.2153 4.26293 10.394 4.19057 10.5378 4.04585C10.6814 3.90126 10.7532 3.72203 10.7532 3.50814C10.7532 3.29439 10.6809 3.11564 10.5363 2.97189C10.3917 2.82828 10.2125 2.75647 9.99862 2.75647C9.78487 2.75647 9.60612 2.82876 9.46237 2.97334C9.31876 3.11807 9.24696 3.2973 9.24696 3.51105C9.24696 3.7248 9.31925 3.90355 9.46383 4.0473C9.60842 4.19105 9.78765 4.26293 10.0015 4.26293Z"/>
</svg>