<svg xmlns="http://www.w3.org/2000/svg" fill="none" viewBox="0 0 20 20" height="20" width="20">
<path fill="black" d="M10.0001 13.9584C10.1773 13.9584 10.3258 13.8984 10.4453 13.7786C10.5651 13.6589 10.6249 13.5105 10.6249 13.3334V9.79171C10.6249 9.61462 10.565 9.46615 10.4451 9.34629C10.3253 9.22657 10.1768 9.16671 9.99971 9.16671C9.82249 9.16671 9.67408 9.22657 9.5545 9.34629C9.43478 9.46615 9.37492 9.61462 9.37492 9.79171V13.3334C9.37492 13.5105 9.43485 13.6589 9.55471 13.7786C9.67457 13.8984 9.82304 13.9584 10.0001 13.9584ZM9.99992 7.74046C10.1906 7.74046 10.3505 7.67594 10.4795 7.54692C10.6085 7.41789 10.673 7.25803 10.673 7.06733C10.673 6.87664 10.6085 6.71678 10.4795 6.58775C10.3505 6.45886 10.1906 6.39442 9.99992 6.39442C9.80922 6.39442 9.64936 6.45886 9.52034 6.58775C9.39131 6.71678 9.32679 6.87664 9.32679 7.06733C9.32679 7.25803 9.39131 7.41789 9.52034 7.54692C9.64936 7.67594 9.80922 7.74046 9.99992 7.74046ZM10.0014 17.9167C8.90638 17.9167 7.87714 17.7089 6.91367 17.2934C5.9502 16.8778 5.11214 16.3139 4.3995 15.6015C3.68686 14.8891 3.12263 14.0514 2.70679 13.0884C2.2911 12.1253 2.08325 11.0964 2.08325 10.0015C2.08325 8.9065 2.29103 7.87726 2.70659 6.91379C3.12214 5.95032 3.6861 5.11226 4.39846 4.39962C5.11082 3.68698 5.94853 3.12275 6.91159 2.70692C7.87464 2.29122 8.9036 2.08337 9.99846 2.08337C11.0935 2.08337 12.1227 2.29115 13.0862 2.70671C14.0496 3.12226 14.8877 3.68622 15.6003 4.39858C16.313 5.11094 16.8772 5.94865 17.293 6.91171C17.7087 7.87476 17.9166 8.90372 17.9166 9.99858C17.9166 11.0936 17.7088 12.1228 17.2933 13.0863C16.8777 14.0498 16.3137 14.8878 15.6014 15.6005C14.889 16.3131 14.0513 16.8773 13.0883 17.2932C12.1252 17.7089 11.0962 17.9167 10.0014 17.9167Z"/>
</svg>