<svg xmlns="http://www.w3.org/2000/svg" fill="none" viewBox="0 0 20 20" height="20" width="20">
<path fill="black" d="M5.032 14.5834L3.36367 16.2515C3.12659 16.4887 2.85388 16.5421 2.54554 16.4115C2.23735 16.2808 2.08325 16.0475 2.08325 15.7115V3.58983C2.08325 3.16886 2.22909 2.81254 2.52075 2.52087C2.81242 2.22921 3.16874 2.08337 3.58971 2.08337H16.4101C16.8311 2.08337 17.1874 2.22921 17.4791 2.52087C17.7708 2.81254 17.9166 3.16886 17.9166 3.58983V13.0769C17.9166 13.4979 17.7708 13.8542 17.4791 14.1459C17.1874 14.4375 16.8311 14.5834 16.4101 14.5834H5.032ZM5.83325 11.4584H10.8333C11.0103 11.4584 11.1587 11.3984 11.2785 11.2786C11.3983 11.1587 11.4583 11.0102 11.4583 10.8332C11.4583 10.6559 11.3983 10.5075 11.2785 10.388C11.1587 10.2682 11.0103 10.2084 10.8333 10.2084H5.83325C5.65617 10.2084 5.50777 10.2683 5.38804 10.3882C5.26818 10.508 5.20825 10.6565 5.20825 10.8336C5.20825 11.0108 5.26818 11.1592 5.38804 11.2788C5.50777 11.3985 5.65617 11.4584 5.83325 11.4584ZM5.83325 8.95837H14.1666C14.3437 8.95837 14.4921 8.89844 14.6118 8.77858C14.7317 8.65872 14.7916 8.51025 14.7916 8.33317C14.7916 8.15594 14.7317 8.00754 14.6118 7.88796C14.4921 7.76824 14.3437 7.70837 14.1666 7.70837H5.83325C5.65617 7.70837 5.50777 7.7683 5.38804 7.88817C5.26818 8.00803 5.20825 8.1565 5.20825 8.33358C5.20825 8.5108 5.26818 8.65921 5.38804 8.77879C5.50777 8.89851 5.65617 8.95837 5.83325 8.95837ZM5.83325 6.45837H14.1666C14.3437 6.45837 14.4921 6.39844 14.6118 6.27858C14.7317 6.15872 14.7916 6.01025 14.7916 5.83317C14.7916 5.65594 14.7317 5.50754 14.6118 5.38796C14.4921 5.26824 14.3437 5.20837 14.1666 5.20837H5.83325C5.65617 5.20837 5.50777 5.2683 5.38804 5.38817C5.26818 5.50803 5.20825 5.6565 5.20825 5.83358C5.20825 6.0108 5.26818 6.15921 5.38804 6.27879C5.50777 6.39851 5.65617 6.45837 5.83325 6.45837Z"/>
</svg>