<svg xmlns="http://www.w3.org/2000/svg" fill="none" viewBox="0 0 20 20" height="20" width="20">
<path fill="black" d="M4.42321 17.0834C4.00223 17.0834 3.64591 16.9375 3.35425 16.6459C3.06258 16.3542 2.91675 15.9979 2.91675 15.5769V4.42314C2.91675 4.00217 3.06258 3.64585 3.35425 3.35419C3.64591 3.06252 4.00223 2.91669 4.42321 2.91669H10.1332C10.3415 2.91669 10.4978 2.9821 10.602 3.11294C10.7061 3.24391 10.7582 3.38682 10.7582 3.54169C10.7582 3.69655 10.704 3.83946 10.5955 3.97044C10.487 4.10127 10.3286 4.16669 10.1203 4.16669H4.42321C4.35904 4.16669 4.30029 4.19342 4.24696 4.24689C4.19348 4.30023 4.16675 4.35898 4.16675 4.42314V15.5769C4.16675 15.6411 4.19348 15.6998 4.24696 15.7531C4.30029 15.8066 4.35904 15.8334 4.42321 15.8334H15.577C15.6411 15.8334 15.6999 15.8066 15.7532 15.7531C15.8067 15.6998 15.8334 15.6411 15.8334 15.5769V9.82689C15.8334 9.61856 15.8988 9.46231 16.0297 9.35814C16.1606 9.25398 16.3036 9.20189 16.4584 9.20189C16.6133 9.20189 16.7562 9.25398 16.8872 9.35814C17.018 9.46231 17.0834 9.61856 17.0834 9.82689V15.5769C17.0834 15.9979 16.9376 16.3542 16.6459 16.6459C16.3542 16.9375 15.9979 17.0834 15.577 17.0834H4.42321ZM7.91675 11.33V9.84627C7.91675 9.6453 7.95578 9.45217 8.03383 9.26689C8.11175 9.08148 8.21911 8.92043 8.35591 8.78377L15.4665 1.67314C15.5957 1.54384 15.7378 1.44953 15.8928 1.39023C16.0477 1.33092 16.2052 1.30127 16.3655 1.30127C16.529 1.30127 16.686 1.33092 16.8365 1.39023C16.9872 1.44953 17.1245 1.54113 17.2484 1.66502L18.2949 2.70835C18.4156 2.83766 18.5083 2.9803 18.573 3.13627C18.6376 3.29224 18.6699 3.45037 18.6699 3.61064C18.6699 3.77092 18.6424 3.92634 18.5874 4.07689C18.5324 4.22759 18.4402 4.36752 18.3109 4.49669L11.1763 11.6315C11.0395 11.7681 10.8785 11.8777 10.6932 11.96C10.5078 12.0422 10.3147 12.0834 10.1138 12.0834H8.67008C8.45522 12.0834 8.27598 12.0115 8.13237 11.8677C7.98862 11.7241 7.91675 11.5449 7.91675 11.33ZM9.16675 10.8334H10.2053L15.399 5.63939L14.8799 5.12023L14.3238 4.58502L9.16675 9.7421V10.8334Z"/>
</svg>