<svg xmlns="http://www.w3.org/2000/svg" fill="none" viewBox="0 0 20 20" height="20" width="20">
<path fill="black" d="M5.625 11.4583V17.5C5.625 17.6771 5.56507 17.8255 5.44521 17.9452C5.32535 18.0651 5.17688 18.125 4.99979 18.125C4.82257 18.125 4.67417 18.0651 4.55458 17.9452C4.43486 17.8255 4.375 17.6771 4.375 17.5V2.5C4.375 2.32292 4.43493 2.17451 4.55479 2.05479C4.67465 1.93493 4.82312 1.875 5.00021 1.875C5.17743 1.875 5.32583 1.93493 5.44542 2.05479C5.56514 2.17451 5.625 2.32292 5.625 2.5V3.54167H16.0865C16.3515 3.54167 16.5579 3.65118 16.7058 3.87021C16.8539 4.08924 16.8777 4.32431 16.7773 4.57542L15.609 7.5L16.7773 10.4246C16.8777 10.6757 16.8539 10.9108 16.7058 11.1298C16.5579 11.3488 16.3515 11.4583 16.0865 11.4583H5.625ZM10.4167 8.95833C10.8215 8.95833 11.1658 8.81653 11.4496 8.53292C11.7332 8.24917 11.875 7.90486 11.875 7.5C11.875 7.09514 11.7332 6.75083 11.4496 6.46708C11.1658 6.18347 10.8215 6.04167 10.4167 6.04167C10.0118 6.04167 9.6675 6.18347 9.38375 6.46708C9.10014 6.75083 8.95833 7.09514 8.95833 7.5C8.95833 7.90486 9.10014 8.24917 9.38375 8.53292C9.6675 8.81653 10.0118 8.95833 10.4167 8.95833ZM5.625 10.2083H15.3463L14.266 7.5L15.3463 4.79167H5.625V10.2083Z"/>
</svg>