<svg xmlns="http://www.w3.org/2000/svg" fill="none" viewBox="0 0 20 20" height="20" width="20">
<path fill="black" d="M2.27074 17.5C2.11796 17.5 1.97907 17.4618 1.85407 17.3854C1.72907 17.309 1.63185 17.2083 1.56241 17.0833C1.49296 16.9583 1.45477 16.8229 1.44782 16.6771C1.44088 16.5312 1.47907 16.3889 1.56241 16.25L9.27074 2.91667C9.35407 2.77778 9.46171 2.67361 9.59366 2.60417C9.7256 2.53472 9.86102 2.5 9.99991 2.5C10.1388 2.5 10.2742 2.53472 10.4062 2.60417C10.5381 2.67361 10.6457 2.77778 10.7291 2.91667L18.4374 16.25C18.5207 16.3889 18.5589 16.5312 18.552 16.6771C18.545 16.8229 18.5068 16.9583 18.4374 17.0833C18.368 17.2083 18.2707 17.309 18.1457 17.3854C18.0207 17.4618 17.8818 17.5 17.7291 17.5H2.27074ZM9.99991 15C10.236 15 10.4339 14.9201 10.5937 14.7604C10.7534 14.6007 10.8332 14.4028 10.8332 14.1667C10.8332 13.9306 10.7534 13.7326 10.5937 13.5729C10.4339 13.4132 10.236 13.3333 9.99991 13.3333C9.76379 13.3333 9.56588 13.4132 9.40616 13.5729C9.24643 13.7326 9.16657 13.9306 9.16657 14.1667C9.16657 14.4028 9.24643 14.6007 9.40616 14.7604C9.56588 14.9201 9.76379 15 9.99991 15ZM9.99991 12.5C10.236 12.5 10.4339 12.4201 10.5937 12.2604C10.7534 12.1007 10.8332 11.9028 10.8332 11.6667V9.16667C10.8332 8.93056 10.7534 8.73264 10.5937 8.57292C10.4339 8.41319 10.236 8.33333 9.99991 8.33333C9.76379 8.33333 9.56588 8.41319 9.40616 8.57292C9.24643 8.73264 9.16657 8.93056 9.16657 9.16667V11.6667C9.16657 11.9028 9.24643 12.1007 9.40616 12.2604C9.56588 12.4201 9.76379 12.5 9.99991 12.5Z"/>
</svg>